<?xml version="1.0" encoding="UTF-8"?>
<svg width="14px" height="14px" viewBox="0 0 14 14" version="1.1" xmlns="http://www.w3.org/2000/svg" xmlns:xlink="http://www.w3.org/1999/xlink">
    <title>台湾备份 2</title>
    <g id="页面-1" stroke="none" stroke-width="1" fill="none" fill-rule="evenodd">
        <g id="官网02ee" transform="translate(-1726.000000, -15.000000)" fill-rule="nonzero">
            <g id="台湾备份-2" transform="translate(1726.000000, 15.000000)">
                <path d="M7,0.00625 C3.146875,0.00625 0.0078125,3.1453125 0.0078125,6.9984375 C0.0078125,10.8515625 3.146875,13.990625 7,13.990625 C10.853125,13.990625 13.9921875,10.8515625 13.9921875,6.9984375 C13.9921875,3.1453125 10.9234375,0.00625 7,0.00625" id="路径" fill="#FE0000"></path>
                <path d="M9.6125,0.4953125 C8.8140625,0.1796875 7.9375,0.00625 7.015625,0.00625 C3.1625,0.00625 0.0234375,3.1453125 0.0234375,6.9984375 C0.0234375,7.065625 0.025,7.13125 0.0265625,7.1984375 L9.6125,7.1984375 L9.6125,0.4953125 Z" id="路径" fill="#000096"></path>
                <path d="M5.078125,2.26875 L5.6703125,2.26875 L5.3671875,1.6 L5.078125,2.26875 Z M5.3890625,2.446875 C6.1796875,2.446875 6.821875,3.0875 6.821875,3.8796875 C6.821875,4.6703125 6.18125,5.3125 5.3890625,5.3125 C4.5984375,5.3125 3.95625,4.671875 3.95625,3.8796875 C3.9578125,3.0890625 4.5984375,2.446875 5.3890625,2.446875 Z M5.925,2.328125 L6.4375,2.625 L6.509375,1.89375 L5.925,2.328125 L5.925,2.328125 Z M6.628125,2.8046875 L6.9234375,3.3171875 L7.3515625,2.7203125 L6.628125,2.8046875 L6.628125,2.8046875 Z M7,3.5671875 L7,4.159375 L7.66875,3.85625 L7,3.5671875 Z M6.940625,4.415625 L6.6453125,4.928125 L7.3765625,5 L6.940625,4.415625 L6.940625,4.415625 Z M6.465625,5.11875 L5.953125,5.4140625 L6.55,5.8421875 L6.465625,5.11875 L6.465625,5.11875 Z M5.7015625,5.490625 L5.109375,5.490625 L5.4125,6.159375 L5.7015625,5.490625 L5.7015625,5.490625 Z M4.8546875,5.43125 L4.3421875,5.1359375 L4.2703125,5.8671875 L4.8546875,5.43125 L4.8546875,5.43125 Z M4.15,4.9546875 L3.8546875,4.4421875 L3.4265625,5.0390625 L4.15,4.9546875 L4.15,4.9546875 Z M3.7796875,4.1921875 L3.7796875,3.6 L3.109375,3.903125 L3.7796875,4.1921875 L3.7796875,4.1921875 Z M3.8390625,3.3453125 L4.134375,2.8328125 L3.403125,2.7609375 L3.8390625,3.3453125 L3.8390625,3.3453125 Z M4.3140625,2.640625 L4.8265625,2.3453125 L4.2296875,1.9171875 L4.3140625,2.640625 L4.3140625,2.640625 Z" id="形状" fill="#FFFFFF"></path>
            </g>
        </g>
    </g>
</svg>