<?xml version="1.0" encoding="UTF-8"?>
<svg width="14px" height="14px" viewBox="0 0 14 14" version="1.1" xmlns="http://www.w3.org/2000/svg" xmlns:xlink="http://www.w3.org/1999/xlink">
    <title>地球</title>
    <g id="页面-2" stroke="none" stroke-width="1" fill="none" fill-rule="evenodd">
        <g id="官网02ee备份-3" transform="translate(-1726.000000, -15.000000)" fill-rule="nonzero">
            <g id="地球" transform="translate(1726.000000, 15.000000)">
                <path d="M0,7 C0,10.8659932 3.13400675,14 7,14 C10.8659932,14 14,10.8659932 14,7 C14,3.13400675 10.8659932,0 7,0 C3.13400675,0 0,3.13400675 0,7 Z" id="路径" fill="#0093FF"></path>
                <path d="M11.123875,1.344875 C11.9995954,2.54135608 12.4707324,3.98603312 12.46875,5.46875 C12.46875,9.33471875 9.33471875,12.46875 5.46875,12.46875 C3.98603312,12.4707324 2.54135608,11.9995954 1.344875,11.123875 C2.618,12.866875 4.67621875,14 7,14 C10.8659688,14 14,10.8659688 14,7 C14,4.67621875 12.866875,2.618 11.123875,1.344875 L11.123875,1.344875 Z" id="路径" fill="#006DBD"></path>
                <path d="M9.85403125,1.75590625 C9.85403125,1.75590625 9.96296875,1.35515625 10.0008125,1.06990625 C10.1322813,1.00778125 10.6623125,1.37484375 11.1111875,1.84515625 C10.808,2.968 10.101,2.9010625 10.101,2.9010625 C10.101,2.9010625 9.517375,2.88903125 9.58496875,2.45175 L9.85403125,1.75590625 L9.85403125,1.75590625 Z M8.2823125,2.4408125 C8.34990625,2.3060625 8.518125,2.23846875 8.68634375,2.17109375 C8.85478125,2.10371875 8.68634375,2.47428125 8.652875,2.6761875 C8.6191875,2.87853125 8.58528125,2.979375 8.82109375,3.21540625 C9.05690625,3.451 8.383375,3.28278125 8.2149375,3.1478125 C8.04671875,3.01328125 8.2823125,2.4408125 8.2823125,2.4408125 L8.2823125,2.4408125 Z M5.23271875,9.00725 C5.19903125,9.17525 4.881625,9.57928125 4.74709375,9.8485625 C4.61234375,10.117625 4.54496875,10.2186875 4.37653125,10.3536563 C4.20809375,10.4881875 4.10725,10.7242188 4.10725,10.7242188 L4.15034375,11.2964688 C4.15034375,11.2964688 4.3185625,11.6665938 4.41984375,11.83525 C4.5206875,12.0036875 4.21771875,12.9128125 4.21771875,12.9128125 C3.926125,12.8568125 3.647,12.7785 3.54571875,12.5085625 C3.444875,12.2392813 3.29896875,12.2392813 3.33265625,11.9360938 C3.36634375,11.6333438 2.86125,11.2625625 2.76040625,11.094125 C2.65934375,10.9259063 2.52459375,10.689875 2.52459375,10.5220938 C2.52459375,10.3534375 2.15403125,10.117625 2.15403125,10.117625 C2.15403125,10.117625 1.48071875,9.81465625 1.37965625,9.67990625 C1.278375,9.54515625 1.17753125,8.973125 1.143625,8.73753125 C1.11015625,8.5015 1.2446875,7.895125 1.2446875,7.895125 C1.2446875,7.895125 1.51396875,7.693 1.34553125,7.525 C1.1773125,7.3565625 1.14340625,6.9190625 1.14340625,6.9190625 L0.8404375,6.582625 C0.8404375,6.582625 0.60484375,6.2453125 0.5709375,6.0773125 C0.53746875,5.9093125 0.5709375,5.80759375 0.60484375,5.639375 C0.6383125,5.4709375 0.53746875,5.1681875 0.53746875,4.99953125 C1.7950625,1.91515625 3.905125,1.1948125 3.905125,1.1948125 L4.0735625,1.9018125 C4.0735625,1.9018125 3.70321875,2.002875 3.50109375,1.93528125 C3.29896875,1.868125 3.19790625,1.868125 3.19790625,1.868125 L2.928625,2.23846875 C2.928625,2.23846875 2.8275625,2.4740625 2.793875,2.6088125 C2.76040625,2.7435625 2.86125,2.94525 2.86125,2.94525 C2.86125,2.94525 3.33265625,2.9789375 3.33265625,2.8441875 C3.33265625,2.70965625 3.26528125,2.64228125 3.26528125,2.64228125 L3.19790625,2.40646875 C3.19790625,2.40646875 3.500875,2.23825 4.309375,2.30584375 C5.1174375,2.37278125 4.81425,2.94525 5.15090625,3.08 C5.4875625,3.21496875 4.881625,3.68571875 4.74709375,3.9554375 C4.61234375,4.2249375 4.41021875,3.619 4.41021875,3.619 C4.41021875,3.619 4.61234375,3.38296875 4.27546875,3.31603125 C3.9388125,3.24821875 3.87165625,3.68571875 4.039875,3.65246875 C4.20809375,3.619 4.242,3.854375 4.20809375,4.02303125 C4.174625,4.19125 4.174625,4.3929375 4.00596875,4.76371875 C3.83775,5.13384375 3.19790625,5.13384375 3.19790625,5.13384375 C3.19790625,5.13384375 3.29896875,5.30271875 3.40003125,5.5041875 C3.500875,5.7063125 3.36634375,6.17771875 3.36634375,6.31246875 C3.36634375,6.447 2.9623125,6.076875 2.89515625,5.74 C2.8275625,5.403125 2.62565625,5.52671875 2.49090625,5.56040625 C2.35615625,5.5943125 1.9184375,5.6949375 1.8510625,5.5269375 C1.7836875,5.3585 1.17775,5.8410625 1.00909375,5.94190625 C0.840875,6.04296875 0.90825,6.31246875 1.17775,6.17771875 C1.44703125,6.04296875 1.68284375,6.14425 1.61546875,6.4133125 C1.54809375,6.68303125 1.27859375,6.5148125 1.3125,6.68303125 C1.34596875,6.85125 1.61546875,7.020125 1.682625,7.25571875 C1.75,7.4913125 2.38984375,7.154875 2.59196875,7.0538125 C2.793875,6.95253125 3.36634375,6.85125 3.4335,7.12096875 C3.500875,7.39003125 4.256,7.62628125 4.49203125,7.69321875 C4.72784375,7.76103125 5.1988125,7.79428125 5.4683125,8.06378125 C5.7378125,8.3330625 5.266625,8.8379375 5.23271875,9.00725 L5.23271875,9.00725 Z" id="形状" fill="#B7D777"></path>
                <path d="M4.21771875,12.9125938 C4.21771875,12.9125938 4.305,12.6503125 4.3701875,12.3814688 C4.02264811,12.3260655 3.67982601,12.2443089 3.3446875,12.1369062 C3.38165625,12.2607188 3.47440625,12.3178125 3.54571875,12.5083437 C3.647,12.7782812 3.92590625,12.8565937 4.21771875,12.9125938 L4.21771875,12.9125938 Z" id="路径" fill="#84BD5A"></path>
                <path d="M6.6325,1.12721875 C6.59903125,1.46453125 6.01540625,1.9691875 6.08278125,2.10371875 C6.1499375,2.23846875 6.12740625,3.2825625 5.656,2.77725 C5.18459375,2.27171875 4.7131875,1.5649375 4.746875,1.22828125 C4.75365625,1.1606875 4.7613125,1.054375 4.76940625,0.937125 C5.4840625,0.273875 7.09734375,0.4095 7.1824375,0.566125 C6.9803125,0.903 6.66640625,0.79078125 6.6325,1.12721875 L6.6325,1.12721875 Z M7.406875,3.11390625 C7.30603125,2.94525 7.64246875,2.8441875 7.64246875,2.8441875 C8.11409375,2.94525 7.9345,3.28234375 7.90059375,3.41665625 C7.867125,3.551625 7.50815625,3.2825625 7.406875,3.11390625 Z M12.7273125,7.132125 C12.7273125,7.132125 12.9865313,7.5145 13.356,7.49153125 C13.1131875,10.3072813 10.7631563,12.1156875 10.7631563,12.1156875 C10.40375,11.7571563 10.5835625,11.4428125 10.5835625,11.4428125 L10.800125,10.9038125 L10.856125,9.99490625 C10.856125,9.99490625 10.740625,9.051875 9.8424375,9.50075 C8.8773125,9.7479375 9.2815625,9.863 8.30528125,9.93103125 C7.3285625,9.99775 7.6986875,8.03053125 7.6986875,8.03053125 C7.6426875,7.22225 7.788375,7.424375 7.788375,6.7956875 C7.788375,6.1674375 9.85403125,6.52640625 9.85403125,6.52640625 C11.200875,7.424375 11.3804688,6.3240625 11.3804688,6.3240625 L12.3679063,5.964875 L12.4578125,5.51578125 L11.9190312,4.88775 L11.1109688,4.528125 C11.1109688,4.528125 10.7404062,4.7639375 11.1109688,5.33640625 C11.1109688,5.33640625 10.987375,5.98740625 10.6844063,5.81875 L9.85403125,4.79740625 C9.85403125,4.79740625 9.573375,5.2801875 9.12428125,5.54946875 C8.675625,5.81875 7.91196875,5.53809375 7.91196875,5.53809375 C7.91196875,5.53809375 7.6654375,4.7753125 8.13684375,4.53928125 L8.8326875,4.528125 C8.8326875,4.528125 8.6865625,4.13525 8.77646875,3.7760625 C8.86615625,3.41665625 9.06828125,3.7314375 9.42746875,3.4619375 C9.786875,3.1924375 10.033625,3.989125 10.5724063,3.89965625 C11.1111875,3.80975 10.8416875,3.7200625 11.2010938,3.54025 C11.5602813,3.36065625 11.8295625,3.89965625 11.8295625,3.89965625 L12.5481563,3.989125 C12.5481563,3.989125 12.0876875,2.760625 11.9247188,2.59546875 C11.9082051,2.59092202 11.8906794,2.59168733 11.874625,2.59765625 C11.883375,2.569 11.900875,2.5711875 11.9247188,2.59546875 C12.3425313,2.67290625 13.7849688,5.145 13.3595,6.6255 C13.21075,6.55921875 13.0869375,6.5034375 13.0869375,6.5034375 L12.18875,6.5034375 L12.7273125,7.132125 Z" id="形状" fill="#B7D777"></path>
                <path d="M12.7273125,7.132125 L12.3582813,6.70184375 C12.1458821,7.89680746 11.6252285,9.01562834 10.8478125,9.94765625 C10.8537188,9.97653125 10.856125,9.9946875 10.856125,9.9946875 L10.800125,10.9035938 L10.5835625,11.4425938 C10.5835625,11.4425938 10.40375,11.7571563 10.7631562,12.1154688 C10.7631562,12.1154688 13.1129688,10.3070625 13.356,7.4913125 C12.9863125,7.5145 12.7273125,7.132125 12.7273125,7.132125 L12.7273125,7.132125 Z M11.8741875,2.67692969 C11.9063309,2.64957038 11.9411693,2.6459319 11.9741875,2.66648582 C11.9261526,2.55055893 11.8912181,2.54011507 11.8741875,2.67692969 L11.8741875,2.67692969 Z M12.46875,5.46875 C12.46875,5.8205 12.4420625,6.16590625 12.3919688,6.50365625 L13.0865,6.50365625 C13.0865,6.50365625 13.2100937,6.5594375 13.3590625,6.62571875 C13.7845313,5.14521875 12.3420938,2.67334375 11.9242812,2.5956875 C12.08725,2.76084375 12.5477188,3.98934375 12.5477188,3.98934375 L12.3003125,3.9585 C12.4075,4.4454375 12.46875,4.94965625 12.46875,5.46875 L12.46875,5.46875 Z" id="形状" fill="#84BD5A"></path>
            </g>
        </g>
    </g>
</svg>